<?xml version="1.0" encoding="UTF-8"?>
<!DOCTYPE svg PUBLIC "-//W3C//DTD SVG 1.1//EN" "http://www.w3.org/Graphics/SVG/1.1/DTD/svg11.dtd">
<!-- Creator: CorelDRAW -->
<svg xmlns="http://www.w3.org/2000/svg" xml:space="preserve" width="2048px" height="2048px" style="shape-rendering:geometricPrecision; text-rendering:geometricPrecision; image-rendering:optimizeQuality; fill-rule:evenodd; clip-rule:evenodd"
viewBox="0 0 2048 2048"
 xmlns:xlink="http://www.w3.org/1999/xlink">
 <defs>
  <style type="text/css">
   <![CDATA[
    .fil2 {fill:none}
    .fil8 {fill:#1E88E5}
    .fil5 {fill:#434A52}
    .fil7 {fill:#8A8A8A}
    .fil3 {fill:#999999}
    .fil4 {fill:#B8B4B4}
    .fil6 {fill:#BBDEFB}
    .fil1 {fill:#D32F2F}
    .fil0 {fill:#EF5350}
   ]]>
  </style>
   <clipPath id="id0">
    <path d="M1024 -0.0011811c565.541,0 1024,458.461 1024,1024 0,565.541 -458.461,1024 -1024,1024 -565.541,0 -1024,-458.461 -1024,-1024 0,-565.541 458.461,-1024 1024,-1024z"/>
   </clipPath>
 </defs>
 <g id="Layer_x0020_1">
  <metadata id="CorelCorpID_0Corel-Layer"/>
  <path class="fil0" d="M1024 -0.0011811c565.541,0 1024,458.461 1024,1024 0,565.541 -458.461,1024 -1024,1024 -565.541,0 -1024,-458.461 -1024,-1024 0,-565.541 458.461,-1024 1024,-1024z"/>
  <g style="clip-path:url(#id0)">
   <g id="_385664752">
    <g>
     <polygon id="_2755085121" class="fil1" points="1477.48,605.652 2613.36,1741.53 2614.65,1743.09 2615.81,1744.78 2616.81,1746.58 2617.66,1748.5 2618.34,1750.5 2618.83,1752.6 2619.14,1754.76 2619.24,1756.99 2619.24,2250.33 2619.14,2252.56 2618.83,2254.72 2618.33,2256.82 2617.66,2258.83 2616.81,2260.74 2615.8,2262.54 2614.65,2264.23 2613.35,2265.79 2611.93,2267.2 2610.38,2268.47 2608.73,2269.57 2606.98,2270.5 2605.15,2271.23 2603.23,2271.78 2601.25,2272.11 2599.21,2272.22 1463.33,1136.34 1465.37,1136.23 1467.35,1135.89 1469.27,1135.35 1471.1,1134.61 1472.85,1133.69 1474.5,1132.59 1476.05,1131.32 1477.47,1129.91 1478.77,1128.35 1479.92,1126.66 1480.93,1124.86 1481.78,1122.94 1482.45,1120.94 1482.95,1118.84 1483.26,1116.68 1483.36,1114.45 1483.36,621.109 1483.26,618.882 1482.95,616.715 1482.45,614.623 1481.78,612.615 1480.93,610.702 1479.93,608.897 1478.77,607.21 "/>
     <polygon id="_275508608" class="fil1" points="1474.71,1141.65 2610.59,2277.53 2611.8,2279 2612.93,2280.59 2613.99,2282.3 2614.98,2284.11 2615.91,2286 2616.8,2287.96 2617.65,2289.98 2618.46,2292.04 2619.24,2294.12 1483.36,1158.23 1482.58,1156.15 1481.76,1154.1 1480.92,1152.08 1480.03,1150.12 1479.1,1148.22 1478.11,1146.42 1477.05,1144.71 1475.92,1143.11 "/>
     <polygon id="_275509760" class="fil1" points="1483.36,1158.23 2619.24,2294.12 2719.1,2562.77 1583.22,1426.89 "/>
     <polygon id="_275509784" class="fil1" points="584.67,1136.34 1720.55,2272.22 1718.51,2272.11 1716.53,2271.78 1714.62,2271.24 1712.78,2270.5 1711.03,2269.57 1709.38,2268.47 1707.84,2267.21 571.954,1131.33 573.497,1132.59 575.149,1133.69 576.898,1134.61 578.736,1135.35 580.65,1135.9 582.631,1136.23 "/>
     <polygon id="_275510096" class="fil1" points="1583.22,1426.89 2719.1,2562.77 2719.68,2564.85 2719.88,2566.91 2719.73,2568.93 2719.27,2570.89 2718.51,2572.78 2717.49,2574.59 2716.23,2576.3 2714.77,2577.89 2713.13,2579.36 2711.34,2580.67 2709.43,2581.83 2707.43,2582.81 2705.37,2583.6 2703.27,2584.18 2701.16,2584.54 2699.07,2584.67 1620.69,2584.67 1618.61,2584.54 1616.5,2584.18 1614.4,2583.6 1612.33,2582.81 1610.33,2581.84 1608.42,2580.68 1606.63,2579.36 470.751,1443.48 472.539,1444.8 474.449,1445.95 476.451,1446.93 478.517,1447.72 480.618,1448.3 482.726,1448.66 484.812,1448.78 1563.19,1448.78 1565.28,1448.66 1567.38,1448.3 1569.48,1447.72 1571.55,1446.93 1573.55,1445.95 1575.46,1444.79 1577.25,1443.47 1578.89,1442.01 1580.35,1440.42 1581.6,1438.71 1582.63,1436.9 1583.38,1435.01 1583.85,1433.04 1584,1431.03 1583.8,1428.97 "/>
    </g>
    <path id="_385665280" class="fil1" d="M1483.36 621.109l0 493.34c0,12.0284 -9.02599,21.8929 -20.0268,21.8929 10.9925,0 15.8929,10.7622 20.0303,21.8929l99.8587 268.656c4.13386,11.1272 -9.01418,21.8929 -20.0303,21.8929l-1078.38 0c-11.0173,0 -24.176,-10.7374 -20.0303,-21.8929l99.8611 -268.656c4.14685,-11.1555 9.0378,-21.8929 20.0268,-21.8929 -11.0032,0 -20.0291,-9.85158 -20.0291,-21.8929l0 -493.34c0,-12.0413 9.013,-21.8929 20.0291,-21.8929l878.661 0c11.0162,0 20.0291,9.86576 20.0291,21.8929z"/>
   </g>
  </g>
  <path class="fil2" d="M1024 -0.0011811c565.541,0 1024,458.461 1024,1024 0,565.541 -458.461,1024 -1024,1024 -565.541,0 -1024,-458.461 -1024,-1024 0,-565.541 458.461,-1024 1024,-1024z"/>
  <path class="fil3" d="M484.811 1448.78l1078.38 0c11.0162,0 24.1654,-10.7646 20.0291,-21.8929l-99.8587 -268.656c-4.13622,-11.1307 -9.03662,-21.8929 -20.0291,-21.8929l-878.659 0c-10.9925,0 -15.8835,10.7374 -20.0291,21.8929l-99.8623 268.656c-4.14567,11.1555 9.013,21.8929 20.0291,21.8929z"/>
  <polygon class="fil4" points="514.106,1356.04 1533.9,1356.04 1447.46,1156.31 600.548,1156.31 "/>
  <path class="fil5" d="M584.67 599.216l878.661 0c11.0162,0 20.0291,9.86576 20.0291,21.8929l0 493.34c0,12.0284 -9.02599,21.8929 -20.0291,21.8929l-878.661 0c-11.0032,0 -20.0291,-9.85158 -20.0291,-21.8929l0 -493.34c0,-12.0413 9.013,-21.8929 20.0291,-21.8929z"/>
  <polygon class="fil6" points="604.584,639.16 604.584,1096.4 1443.42,1096.4 1443.42,639.16 "/>
  <rect class="fil7" transform="matrix(0.624129 -0 -0.158122 0.62413 611.549 1169.32)" width="63.9993" height="63.9993"/>
  <rect class="fil7" transform="matrix(0.624129 -0 -0.112264 0.62413 672.2 1169.32)" width="63.9993" height="63.9993"/>
  <rect class="fil7" transform="matrix(0.624129 -0 -0.112264 0.62413 732.852 1169.32)" width="63.9993" height="63.9993"/>
  <rect class="fil7" transform="matrix(0.624129 -0 -0.112264 0.62413 793.503 1169.32)" width="63.9993" height="63.9993"/>
  <rect class="fil7" x="846.969" y="1169.32" width="39.9438" height="39.9438"/>
  <rect class="fil7" x="900.436" y="1169.32" width="39.9438" height="39.9438"/>
  <rect class="fil7" x="953.903" y="1169.32" width="39.9438" height="39.9438"/>
  <rect class="fil7" x="1007.37" y="1169.32" width="39.9438" height="39.9438"/>
  <rect class="fil7" x="1060.84" y="1169.32" width="39.9438" height="39.9438"/>
  <rect class="fil7" x="1114.3" y="1169.32" width="39.9438" height="39.9438"/>
  <rect class="fil7" x="1167.77" y="1169.32" width="39.9438" height="39.9438"/>
  <rect class="fil7" x="1221.23" y="1169.32" width="39.9438" height="39.9438"/>
  <rect class="fil7" transform="matrix(0.624129 -0 0.110106 0.62413 1335.21 1169.32)" width="63.9993" height="63.9993"/>
  <rect class="fil7" transform="matrix(-0.624129 -0 0.158122 0.62413 1435.67 1169.32)" width="63.9993" height="63.9993"/>
  <rect class="fil7" transform="matrix(0.624129 -0 0.110106 0.62413 1274.7 1169.32)" width="63.9993" height="63.9993"/>
  <rect class="fil7" transform="matrix(0.624129 -0 -0.158122 0.62413 611.549 1236.2)" width="63.9993" height="63.9993"/>
  <rect class="fil7" transform="matrix(0.624129 -0 -0.112264 0.62413 672.2 1236.2)" width="63.9993" height="63.9993"/>
  <rect class="fil7" transform="matrix(0.624129 -0 -0.112264 0.62413 732.852 1236.2)" width="63.9993" height="63.9993"/>
  <rect class="fil7" transform="matrix(0.624129 -0 -0.112264 0.62413 793.503 1236.2)" width="63.9993" height="63.9993"/>
  <rect class="fil7" x="846.969" y="1236.2" width="39.9438" height="39.9438"/>
  <rect class="fil7" x="900.436" y="1236.2" width="39.9438" height="39.9438"/>
  <rect class="fil7" x="953.903" y="1236.2" width="39.9438" height="39.9438"/>
  <rect class="fil7" x="1007.37" y="1236.2" width="39.9438" height="39.9438"/>
  <rect class="fil7" x="1060.84" y="1236.2" width="39.9438" height="39.9438"/>
  <rect class="fil7" x="1114.3" y="1236.2" width="39.9438" height="39.9438"/>
  <rect class="fil7" x="1167.77" y="1236.2" width="39.9438" height="39.9438"/>
  <rect class="fil7" x="1221.23" y="1236.2" width="39.9438" height="39.9438"/>
  <rect class="fil7" transform="matrix(0.624129 -0 0.110106 0.62413 1335.21 1236.2)" width="63.9993" height="63.9993"/>
  <rect class="fil7" transform="matrix(-0.624129 -0 0.158122 0.62413 1435.67 1236.2)" width="63.9993" height="63.9993"/>
  <rect class="fil7" transform="matrix(0.624129 -0 0.110106 0.62413 1274.7 1236.2)" width="63.9993" height="63.9993"/>
  <rect class="fil7" transform="matrix(0.624129 -0 -0.158122 0.62413 611.549 1303.08)" width="63.9993" height="63.9993"/>
  <rect class="fil7" transform="matrix(0.624129 -0 -0.112264 0.62413 672.2 1303.08)" width="63.9993" height="63.9993"/>
  <rect class="fil7" transform="matrix(0.624129 -0 -0.112264 0.62413 732.852 1303.08)" width="63.9993" height="63.9993"/>
  <polygon class="fil7" points="1061.48,1303.08 1203.46,1303.08 1254.53,1303.08 1261.47,1343.03 1203.46,1343.03 1061.48,1343.03 786.53,1343.03 793.794,1303.08 "/>
  <rect class="fil7" transform="matrix(0.624129 -0 0.110106 0.62413 1335.21 1303.08)" width="63.9993" height="63.9993"/>
  <rect class="fil7" transform="matrix(-0.624129 -0 0.158122 0.62413 1435.67 1303.08)" width="63.9993" height="63.9993"/>
  <rect class="fil7" transform="matrix(0.624129 -0 0.110106 0.62413 1274.7 1303.08)" width="63.9993" height="63.9993"/>
  <path class="fil8" d="M1216 819.119c18.3957,20.3398 29.0351,47.6575 27.5551,77.1308 -1.48228,29.5441 -14.8039,55.6949 -35.1414,74.0871 -20.3398,18.3957 -47.6575,29.0351 -77.1308,27.5551l-234.678 -0.400394c-26.7921,-1.3441 -50.5063,-13.4256 -67.1859,-31.8673 -16.6831,-18.4465 -26.3315,-43.2166 -24.991,-69.9378 1.34528,-26.7921 13.4256,-50.5063 31.8685,-67.1859 18.4465,-16.6831 43.2177,-26.3315 69.9378,-24.991 4.11142,0.206693 8.0693,0.641339 11.8618,1.28976 5.58189,-17.3173 15.8575,-32.4296 29.2654,-43.917 18.2043,-15.5965 42.1713,-24.5232 67.9796,-23.2276 21.6449,1.08662 41.2807,9.17599 56.8241,21.9673 10.4941,8.63505 19.1221,19.4138 25.2402,31.624 3.77717,-1.48583 7.66182,-2.76732 11.6374,-3.82677 38.6634,-10.3099 80.0186,1.91103 106.957,31.6996z"/>
 </g>
</svg>
